<?xml version="1.0" encoding="utf-8"?>
<svg viewBox="0 0 129 90" width="129" height="90" xmlns="http://www.w3.org/2000/svg">
  <g transform="matrix(0.064338, 0, 0, -0.06762, 23.724291, 63.914013)" fill="#000000" stroke="none" style="">
    <path d="M540 857 c-78 -18 -124 -43 -187 -100 -47 -43 -113 -136 -113 -159 0 -5 27 -8 61 -8 60 0 61 0 110 54 64 70 131 100 219 99 198 -2 337 -196 275 -384 -24 -72 -109 -157 -183 -183 -101 -35 -222 -6 -301 73 -40 40 -43 41 -106 41 l-66 0 17 -32 c81 -157 279 -247 452 -208 102 24 214 105 265 193 108 183 55 428 -118 547 -93 64 -221 90 -325 67z m158 -63 c12 -4 22 -11 22 -18 0 -7 -30 -11 -90 -11 -62 0 -90 4 -90 12 0 6 8 14 18 16 26 7 114 7 140 1z"/>
    <path d="M549 707 c-56 -21 -106 -55 -130 -88 l-20 -29 55 0 c38 0 66 6 88 20 40 24 126 27 167 6 48 -25 89 -81 97 -132 19 -131 -91 -235 -219 -205 -27 6 -76 11 -110 11 l-60 0 23 -25 c41 -44 120 -76 188 -76 148 -1 262 110 262 254 0 79 -16 129 -57 177 -72 84 -193 121 -284 87z"/>
    <path d="M233 548 l-73 -11 0 -58 c0 -59 0 -59 30 -59 25 0 30 4 30 23 0 51 20 61 137 68 59 4 114 8 122 10 7 2 15 -1 18 -7 6 -16 -37 -26 -147 -33 -93 -6 -95 -7 -95 -31 l0 -25 136 -3 c125 -2 138 -1 162 18 32 25 35 58 8 91 -18 23 -26 24 -138 26 -65 0 -151 -4 -190 -9z"/>
    <path d="M617 532 c-34 -38 -7 -112 42 -112 29 0 71 39 71 66 0 54 -78 85 -113 46z"/>
    <path d="M160 355 l0 -25 280 0 280 0 0 25 0 25 -280 0 -280 0 0 -25z"/>
  </g>
  <path d="M 36.269 72.338 L 36.269 61.298 C 37.656 61.205 38.969 61.158 40.209 61.158 C 41.796 61.158 42.909 61.571 43.549 62.398 C 44.189 63.225 44.509 64.698 44.509 66.818 C 44.509 68.938 44.189 70.411 43.549 71.238 C 42.909 72.065 41.796 72.478 40.209 72.478 C 38.969 72.478 37.656 72.431 36.269 72.338 Z M 37.679 62.398 L 37.679 71.218 C 38.639 71.238 39.482 71.248 40.209 71.248 C 41.262 71.248 41.999 70.925 42.419 70.278 C 42.832 69.638 43.039 68.485 43.039 66.818 C 43.039 65.151 42.832 63.995 42.419 63.348 C 41.999 62.695 41.262 62.368 40.209 62.368 C 39.522 62.368 38.679 62.378 37.679 62.398 ZM 49.163 71.168 L 53.603 71.168 L 53.663 72.258 C 52.683 72.325 51.103 72.358 48.923 72.358 C 48.276 72.358 47.763 72.185 47.383 71.838 C 47.003 71.491 46.81 71.025 46.803 70.438 L 46.803 63.198 C 46.81 62.611 47.003 62.145 47.383 61.798 C 47.763 61.451 48.276 61.278 48.923 61.278 C 51.103 61.278 52.683 61.311 53.663 61.378 L 53.603 62.478 L 49.163 62.478 C 48.523 62.478 48.203 62.831 48.203 63.538 L 48.203 65.938 L 52.973 65.938 L 52.973 67.078 L 48.203 67.078 L 48.203 70.098 C 48.203 70.811 48.523 71.168 49.163 71.168 ZM 55.823 61.298 L 57.213 61.298 L 57.213 70.098 C 57.213 70.805 57.57 71.158 58.283 71.158 L 62.273 71.158 L 62.333 72.238 C 61.406 72.318 59.983 72.358 58.063 72.358 C 56.57 72.358 55.823 71.665 55.823 70.278 L 55.823 61.298 ZM 65.487 61.298 L 65.487 72.338 L 64.077 72.338 L 64.077 61.298 L 65.487 61.298 ZM 74.979 68.848 L 76.049 72.338 L 74.539 72.338 L 73.569 68.878 C 73.429 68.465 73.242 68.171 73.009 67.998 C 72.776 67.818 72.472 67.728 72.099 67.728 C 71.726 67.728 71.269 67.725 70.729 67.718 C 70.189 67.718 69.832 67.718 69.659 67.718 L 69.659 72.338 L 68.269 72.338 L 68.269 61.298 C 69.169 61.205 70.439 61.158 72.079 61.158 C 73.392 61.158 74.316 61.385 74.849 61.838 C 75.382 62.291 75.649 63.125 75.649 64.338 C 75.649 65.245 75.492 65.921 75.179 66.368 C 74.859 66.815 74.339 67.088 73.619 67.188 L 73.619 67.268 C 73.912 67.341 74.182 67.515 74.429 67.788 C 74.676 68.061 74.859 68.415 74.979 68.848 Z M 69.659 62.388 L 69.659 66.518 L 72.049 66.518 C 72.882 66.505 73.452 66.355 73.759 66.068 C 74.066 65.781 74.219 65.231 74.219 64.418 C 74.219 63.618 74.066 63.078 73.759 62.798 C 73.452 62.511 72.882 62.368 72.049 62.368 C 70.876 62.368 70.079 62.375 69.659 62.388 ZM 85.107 72.338 L 84.017 68.878 L 79.467 68.878 L 78.387 72.338 L 76.927 72.338 L 80.477 61.678 C 80.544 61.425 80.72 61.298 81.007 61.298 L 82.477 61.298 C 82.764 61.298 82.94 61.425 83.007 61.678 L 86.557 72.338 L 85.107 72.338 Z M 79.857 67.668 L 83.627 67.668 L 82.237 63.278 C 82.144 63.005 82.054 62.708 81.967 62.388 L 81.517 62.388 L 81.247 63.278 L 79.857 67.668 Z" transform="matrix(1, 0, 0, 1, 1.2457669973373413, 3.3188560009002686)" style="white-space: pre;"/>
  <path d="M 33.027 85.708 L 33.027 82.258 C 33.46 82.225 33.874 82.208 34.267 82.208 C 34.76 82.208 35.107 82.338 35.307 82.598 C 35.507 82.858 35.607 83.318 35.607 83.978 C 35.607 84.645 35.507 85.108 35.307 85.368 C 35.107 85.621 34.76 85.748 34.267 85.748 C 33.874 85.748 33.46 85.735 33.027 85.708 Z M 33.477 82.608 L 33.477 85.358 C 33.77 85.365 34.034 85.368 34.267 85.368 C 34.594 85.368 34.82 85.268 34.947 85.068 C 35.08 84.861 35.147 84.498 35.147 83.978 C 35.147 83.465 35.08 83.105 34.947 82.898 C 34.82 82.691 34.594 82.588 34.267 82.588 C 34.047 82.588 33.784 82.595 33.477 82.608 ZM 37.767 84.698 L 36.637 84.698 C 36.664 84.978 36.734 85.165 36.847 85.258 C 36.954 85.358 37.14 85.408 37.407 85.408 C 37.687 85.408 37.967 85.388 38.247 85.348 L 38.297 85.638 C 38.084 85.725 37.77 85.768 37.357 85.768 C 36.937 85.768 36.637 85.671 36.457 85.478 C 36.277 85.278 36.187 84.945 36.187 84.478 C 36.187 84.011 36.274 83.685 36.447 83.498 C 36.62 83.305 36.907 83.208 37.307 83.208 C 37.674 83.208 37.94 83.275 38.107 83.408 C 38.274 83.541 38.357 83.741 38.357 84.008 C 38.357 84.468 38.16 84.698 37.767 84.698 Z M 36.627 84.368 L 37.667 84.368 C 37.84 84.368 37.927 84.248 37.927 84.008 C 37.92 83.848 37.874 83.735 37.787 83.668 C 37.7 83.601 37.547 83.568 37.327 83.568 C 37.067 83.568 36.89 83.625 36.797 83.738 C 36.69 83.851 36.634 84.061 36.627 84.368 ZM 40.452 84.698 L 39.322 84.698 C 39.349 84.978 39.419 85.165 39.532 85.258 C 39.639 85.358 39.825 85.408 40.092 85.408 C 40.372 85.408 40.652 85.388 40.932 85.348 L 40.982 85.638 C 40.769 85.725 40.455 85.768 40.042 85.768 C 39.622 85.768 39.322 85.671 39.142 85.478 C 38.962 85.278 38.872 84.945 38.872 84.478 C 38.872 84.011 38.959 83.685 39.132 83.498 C 39.305 83.305 39.592 83.208 39.992 83.208 C 40.359 83.208 40.625 83.275 40.792 83.408 C 40.959 83.541 41.042 83.741 41.042 84.008 C 41.042 84.468 40.845 84.698 40.452 84.698 Z M 39.312 84.368 L 40.352 84.368 C 40.525 84.368 40.612 84.248 40.612 84.008 C 40.605 83.848 40.559 83.735 40.472 83.668 C 40.385 83.601 40.232 83.568 40.012 83.568 C 39.752 83.568 39.575 83.625 39.482 83.738 C 39.375 83.851 39.319 84.061 39.312 84.368 ZM 41.677 83.268 L 42.027 83.268 L 42.067 83.668 C 42.194 83.528 42.35 83.415 42.537 83.328 C 42.717 83.248 42.897 83.208 43.077 83.208 C 43.364 83.208 43.574 83.315 43.707 83.528 C 43.84 83.748 43.907 84.071 43.907 84.498 C 43.907 84.958 43.834 85.285 43.687 85.478 C 43.54 85.671 43.307 85.768 42.987 85.768 C 42.667 85.768 42.367 85.685 42.087 85.518 C 42.1 85.631 42.107 85.795 42.107 86.008 L 42.107 86.718 L 41.677 86.718 L 41.677 83.268 Z M 42.107 83.958 L 42.107 85.248 C 42.44 85.348 42.697 85.398 42.877 85.398 C 43.104 85.398 43.26 85.338 43.347 85.218 C 43.434 85.091 43.477 84.851 43.477 84.498 C 43.477 84.158 43.434 83.921 43.347 83.788 C 43.267 83.648 43.13 83.578 42.937 83.578 C 42.81 83.578 42.684 83.608 42.557 83.668 C 42.43 83.728 42.28 83.825 42.107 83.958 ZM 45.722 82.258 L 46.162 82.258 L 46.162 85.008 C 46.162 85.228 46.275 85.338 46.502 85.338 L 47.742 85.338 L 47.762 85.678 C 47.469 85.705 47.025 85.718 46.432 85.718 C 45.959 85.718 45.722 85.498 45.722 85.058 L 45.722 82.258 ZM 49.712 84.698 L 48.582 84.698 C 48.609 84.978 48.679 85.165 48.792 85.258 C 48.899 85.358 49.085 85.408 49.352 85.408 C 49.632 85.408 49.912 85.388 50.192 85.348 L 50.242 85.638 C 50.029 85.725 49.715 85.768 49.302 85.768 C 48.882 85.768 48.582 85.671 48.402 85.478 C 48.222 85.278 48.132 84.945 48.132 84.478 C 48.132 84.011 48.219 83.685 48.392 83.498 C 48.565 83.305 48.852 83.208 49.252 83.208 C 49.619 83.208 49.885 83.275 50.052 83.408 C 50.219 83.541 50.302 83.741 50.302 84.008 C 50.302 84.468 50.105 84.698 49.712 84.698 Z M 48.572 84.368 L 49.612 84.368 C 49.785 84.368 49.872 84.248 49.872 84.008 C 49.865 83.848 49.819 83.735 49.732 83.668 C 49.645 83.601 49.492 83.568 49.272 83.568 C 49.012 83.568 48.835 83.625 48.742 83.738 C 48.635 83.851 48.579 84.061 48.572 84.368 ZM 50.957 83.638 L 50.907 83.318 C 51.354 83.245 51.747 83.208 52.087 83.208 C 52.374 83.208 52.584 83.268 52.717 83.388 C 52.857 83.508 52.927 83.708 52.927 83.988 L 52.927 85.708 L 52.587 85.708 L 52.537 85.308 C 52.417 85.421 52.27 85.525 52.097 85.618 C 51.924 85.705 51.734 85.748 51.527 85.748 C 51.307 85.748 51.13 85.691 50.997 85.578 C 50.87 85.458 50.807 85.288 50.807 85.068 L 50.807 84.808 C 50.807 84.615 50.864 84.468 50.977 84.368 C 51.097 84.261 51.264 84.208 51.477 84.208 L 52.497 84.208 L 52.497 83.988 C 52.497 83.835 52.46 83.728 52.387 83.668 C 52.32 83.601 52.19 83.568 51.997 83.568 C 51.757 83.568 51.41 83.591 50.957 83.638 Z M 51.237 84.868 L 51.237 85.018 C 51.237 85.151 51.267 85.245 51.327 85.298 C 51.387 85.358 51.484 85.388 51.617 85.388 C 51.744 85.388 51.887 85.358 52.047 85.298 C 52.214 85.231 52.364 85.138 52.497 85.018 L 52.497 84.528 L 51.557 84.528 C 51.437 84.535 51.354 84.568 51.307 84.628 C 51.26 84.681 51.237 84.761 51.237 84.868 ZM 55.092 83.208 L 55.212 83.208 L 55.152 83.608 L 55.022 83.608 C 54.895 83.608 54.765 83.635 54.632 83.688 C 54.505 83.735 54.332 83.811 54.112 83.918 L 54.112 85.708 L 53.682 85.708 L 53.682 83.268 L 54.012 83.268 L 54.062 83.658 C 54.435 83.358 54.779 83.208 55.092 83.208 ZM 55.687 83.268 L 56.047 83.268 L 56.077 83.658 C 56.47 83.358 56.834 83.208 57.167 83.208 C 57.607 83.208 57.827 83.435 57.827 83.888 L 57.827 85.708 L 57.397 85.708 L 57.397 83.998 C 57.397 83.838 57.37 83.728 57.317 83.668 C 57.27 83.601 57.184 83.568 57.057 83.568 C 56.917 83.568 56.78 83.601 56.647 83.668 C 56.514 83.721 56.337 83.818 56.117 83.958 L 56.117 85.708 L 55.687 85.708 L 55.687 83.268 ZM 58.722 82.238 L 58.922 82.238 C 59.009 82.238 59.052 82.281 59.052 82.368 L 59.052 82.648 C 59.052 82.735 59.009 82.778 58.922 82.778 L 58.722 82.778 C 58.635 82.778 58.592 82.735 58.592 82.648 L 58.592 82.368 C 58.592 82.281 58.635 82.238 58.722 82.238 Z M 59.032 83.268 L 59.032 85.708 L 58.612 85.708 L 58.612 83.268 L 59.032 83.268 ZM 59.832 83.268 L 60.192 83.268 L 60.222 83.658 C 60.615 83.358 60.979 83.208 61.312 83.208 C 61.752 83.208 61.972 83.435 61.972 83.888 L 61.972 85.708 L 61.542 85.708 L 61.542 83.998 C 61.542 83.838 61.515 83.728 61.462 83.668 C 61.415 83.601 61.329 83.568 61.202 83.568 C 61.062 83.568 60.925 83.601 60.792 83.668 C 60.659 83.721 60.482 83.818 60.262 83.958 L 60.262 85.708 L 59.832 85.708 L 59.832 83.268 ZM 65.027 83.268 L 65.007 83.508 L 64.637 83.538 C 64.71 83.651 64.747 83.801 64.747 83.988 C 64.747 84.261 64.667 84.458 64.507 84.578 C 64.354 84.698 64.084 84.758 63.697 84.758 C 63.51 84.758 63.34 84.745 63.187 84.718 C 63.127 84.791 63.11 84.875 63.137 84.968 C 63.164 85.061 63.24 85.115 63.367 85.128 L 64.277 85.278 C 64.504 85.311 64.66 85.381 64.747 85.488 C 64.84 85.595 64.887 85.755 64.887 85.968 C 64.887 86.248 64.804 86.441 64.637 86.548 C 64.47 86.661 64.167 86.718 63.727 86.718 C 63.287 86.718 62.98 86.665 62.807 86.558 C 62.64 86.451 62.557 86.258 62.557 85.978 C 62.557 85.838 62.584 85.725 62.637 85.638 C 62.704 85.545 62.807 85.461 62.947 85.388 C 62.827 85.288 62.77 85.161 62.777 85.008 C 62.79 84.841 62.854 84.715 62.967 84.628 C 62.76 84.515 62.657 84.301 62.657 83.988 C 62.657 83.708 62.734 83.511 62.887 83.398 C 63.047 83.271 63.317 83.208 63.697 83.208 C 63.93 83.208 64.12 83.228 64.267 83.268 L 65.027 83.268 Z M 63.187 84.338 C 63.287 84.405 63.457 84.438 63.697 84.438 C 63.937 84.438 64.104 84.405 64.197 84.338 C 64.297 84.265 64.347 84.148 64.347 83.988 C 64.347 83.821 64.3 83.705 64.207 83.638 C 64.114 83.571 63.944 83.538 63.697 83.538 C 63.457 83.538 63.287 83.571 63.187 83.638 C 63.094 83.705 63.047 83.821 63.047 83.988 C 63.047 84.148 63.094 84.265 63.187 84.338 Z M 64.057 85.588 L 63.227 85.478 C 63.054 85.605 62.967 85.761 62.967 85.948 C 62.967 86.115 63.017 86.225 63.117 86.278 C 63.217 86.331 63.42 86.358 63.727 86.358 C 64.02 86.358 64.217 86.331 64.317 86.278 C 64.424 86.218 64.477 86.108 64.477 85.948 C 64.477 85.828 64.45 85.745 64.397 85.698 C 64.344 85.658 64.23 85.621 64.057 85.588 ZM 66.772 82.238 L 66.972 82.238 C 67.059 82.238 67.102 82.281 67.102 82.368 L 67.102 82.648 C 67.102 82.735 67.059 82.778 66.972 82.778 L 66.772 82.778 C 66.685 82.778 66.642 82.735 66.642 82.648 L 66.642 82.368 C 66.642 82.281 66.685 82.238 66.772 82.238 Z M 67.082 83.268 L 67.082 85.708 L 66.662 85.708 L 66.662 83.268 L 67.082 83.268 ZM 67.882 83.268 L 68.242 83.268 L 68.272 83.658 C 68.665 83.358 69.029 83.208 69.362 83.208 C 69.802 83.208 70.022 83.435 70.022 83.888 L 70.022 85.708 L 69.592 85.708 L 69.592 83.998 C 69.592 83.838 69.565 83.728 69.512 83.668 C 69.465 83.601 69.379 83.568 69.252 83.568 C 69.112 83.568 68.975 83.601 68.842 83.668 C 68.709 83.721 68.532 83.818 68.312 83.958 L 68.312 85.708 L 67.882 85.708 L 67.882 83.268 ZM 74.042 84.618 L 74.382 85.708 L 73.912 85.708 L 73.602 84.628 C 73.555 84.495 73.499 84.401 73.432 84.348 C 73.352 84.295 73.255 84.268 73.142 84.268 C 73.029 84.268 72.885 84.268 72.712 84.268 C 72.545 84.261 72.435 84.258 72.382 84.258 L 72.382 85.708 L 71.942 85.708 L 71.942 82.258 C 72.222 82.225 72.622 82.208 73.142 82.208 C 73.549 82.208 73.835 82.281 74.002 82.428 C 74.169 82.568 74.252 82.828 74.252 83.208 C 74.252 83.488 74.202 83.701 74.102 83.848 C 74.002 83.981 73.839 84.065 73.612 84.098 L 73.612 84.128 C 73.712 84.148 73.799 84.201 73.872 84.288 C 73.952 84.375 74.009 84.485 74.042 84.618 Z M 72.382 82.598 L 72.382 83.888 L 73.122 83.888 C 73.382 83.888 73.562 83.841 73.662 83.748 C 73.755 83.655 73.802 83.481 73.802 83.228 C 73.802 82.981 73.755 82.815 73.662 82.728 C 73.562 82.635 73.382 82.588 73.122 82.588 C 72.755 82.588 72.509 82.591 72.382 82.598 ZM 75.012 83.638 L 74.962 83.318 C 75.409 83.245 75.802 83.208 76.142 83.208 C 76.429 83.208 76.639 83.268 76.772 83.388 C 76.912 83.508 76.982 83.708 76.982 83.988 L 76.982 85.708 L 76.642 85.708 L 76.592 85.308 C 76.472 85.421 76.325 85.525 76.152 85.618 C 75.979 85.705 75.789 85.748 75.582 85.748 C 75.362 85.748 75.185 85.691 75.052 85.578 C 74.925 85.458 74.862 85.288 74.862 85.068 L 74.862 84.808 C 74.862 84.615 74.919 84.468 75.032 84.368 C 75.152 84.261 75.319 84.208 75.532 84.208 L 76.552 84.208 L 76.552 83.988 C 76.552 83.835 76.515 83.728 76.442 83.668 C 76.375 83.601 76.245 83.568 76.052 83.568 C 75.812 83.568 75.465 83.591 75.012 83.638 Z M 75.292 84.868 L 75.292 85.018 C 75.292 85.151 75.322 85.245 75.382 85.298 C 75.442 85.358 75.539 85.388 75.672 85.388 C 75.799 85.388 75.942 85.358 76.102 85.298 C 76.269 85.231 76.419 85.138 76.552 85.018 L 76.552 84.528 L 75.612 84.528 C 75.492 84.535 75.409 84.568 75.362 84.628 C 75.315 84.681 75.292 84.761 75.292 84.868 ZM 79.387 82.208 L 79.817 82.208 L 79.817 85.708 L 79.487 85.708 L 79.447 85.358 C 79.14 85.631 78.82 85.768 78.487 85.768 C 78.187 85.768 77.967 85.661 77.827 85.448 C 77.694 85.235 77.627 84.911 77.627 84.478 C 77.627 84.018 77.7 83.691 77.847 83.498 C 77.994 83.305 78.227 83.208 78.547 83.208 C 78.867 83.208 79.154 83.285 79.407 83.438 C 79.394 83.291 79.387 83.131 79.387 82.958 L 79.387 82.208 Z M 79.387 85.058 L 79.387 83.718 C 79.067 83.625 78.82 83.578 78.647 83.578 C 78.427 83.578 78.274 83.641 78.187 83.768 C 78.1 83.888 78.057 84.125 78.057 84.478 C 78.057 84.831 78.1 85.071 78.187 85.198 C 78.274 85.331 78.42 85.398 78.627 85.398 C 78.754 85.398 78.867 85.375 78.967 85.328 C 79.074 85.275 79.214 85.185 79.387 85.058 ZM 80.732 82.238 L 80.932 82.238 C 81.019 82.238 81.062 82.281 81.062 82.368 L 81.062 82.648 C 81.062 82.735 81.019 82.778 80.932 82.778 L 80.732 82.778 C 80.645 82.778 80.602 82.735 80.602 82.648 L 80.602 82.368 C 80.602 82.281 80.645 82.238 80.732 82.238 Z M 81.042 83.268 L 81.042 85.708 L 80.622 85.708 L 80.622 83.268 L 81.042 83.268 ZM 82.872 83.208 C 83.292 83.208 83.589 83.305 83.762 83.498 C 83.929 83.691 84.012 84.021 84.012 84.488 C 84.012 84.955 83.929 85.285 83.762 85.478 C 83.589 85.678 83.292 85.778 82.872 85.778 C 82.459 85.778 82.165 85.678 81.992 85.478 C 81.819 85.285 81.732 84.955 81.732 84.488 C 81.732 84.021 81.819 83.691 81.992 83.498 C 82.165 83.305 82.459 83.208 82.872 83.208 Z M 83.422 83.768 C 83.322 83.635 83.139 83.568 82.872 83.568 C 82.605 83.568 82.422 83.635 82.322 83.768 C 82.222 83.895 82.172 84.135 82.172 84.488 C 82.172 84.841 82.222 85.085 82.322 85.218 C 82.422 85.351 82.605 85.418 82.872 85.418 C 83.139 85.418 83.322 85.351 83.422 85.218 C 83.529 85.085 83.582 84.841 83.582 84.488 C 83.582 84.135 83.529 83.895 83.422 83.768 ZM 84.692 82.208 L 85.112 82.208 L 85.112 85.038 C 85.112 85.145 85.139 85.225 85.192 85.278 C 85.245 85.331 85.329 85.358 85.442 85.358 L 85.682 85.358 L 85.732 85.688 C 85.639 85.728 85.489 85.748 85.282 85.748 C 85.095 85.748 84.952 85.695 84.852 85.588 C 84.745 85.481 84.692 85.328 84.692 85.128 L 84.692 82.208 ZM 87.197 83.208 C 87.617 83.208 87.914 83.305 88.087 83.498 C 88.254 83.691 88.337 84.021 88.337 84.488 C 88.337 84.955 88.254 85.285 88.087 85.478 C 87.914 85.678 87.617 85.778 87.197 85.778 C 86.784 85.778 86.49 85.678 86.317 85.478 C 86.144 85.285 86.057 84.955 86.057 84.488 C 86.057 84.021 86.144 83.691 86.317 83.498 C 86.49 83.305 86.784 83.208 87.197 83.208 Z M 87.747 83.768 C 87.647 83.635 87.464 83.568 87.197 83.568 C 86.93 83.568 86.747 83.635 86.647 83.768 C 86.547 83.895 86.497 84.135 86.497 84.488 C 86.497 84.841 86.547 85.085 86.647 85.218 C 86.747 85.351 86.93 85.418 87.197 85.418 C 87.464 85.418 87.647 85.351 87.747 85.218 C 87.854 85.085 87.907 84.841 87.907 84.488 C 87.907 84.135 87.854 83.895 87.747 83.768 ZM 91.297 83.268 L 91.277 83.508 L 90.907 83.538 C 90.98 83.651 91.017 83.801 91.017 83.988 C 91.017 84.261 90.937 84.458 90.777 84.578 C 90.624 84.698 90.354 84.758 89.967 84.758 C 89.78 84.758 89.61 84.745 89.457 84.718 C 89.397 84.791 89.38 84.875 89.407 84.968 C 89.434 85.061 89.51 85.115 89.637 85.128 L 90.547 85.278 C 90.774 85.311 90.93 85.381 91.017 85.488 C 91.11 85.595 91.157 85.755 91.157 85.968 C 91.157 86.248 91.074 86.441 90.907 86.548 C 90.74 86.661 90.437 86.718 89.997 86.718 C 89.557 86.718 89.25 86.665 89.077 86.558 C 88.91 86.451 88.827 86.258 88.827 85.978 C 88.827 85.838 88.854 85.725 88.907 85.638 C 88.974 85.545 89.077 85.461 89.217 85.388 C 89.097 85.288 89.04 85.161 89.047 85.008 C 89.06 84.841 89.124 84.715 89.237 84.628 C 89.03 84.515 88.927 84.301 88.927 83.988 C 88.927 83.708 89.004 83.511 89.157 83.398 C 89.317 83.271 89.587 83.208 89.967 83.208 C 90.2 83.208 90.39 83.228 90.537 83.268 L 91.297 83.268 Z M 89.457 84.338 C 89.557 84.405 89.727 84.438 89.967 84.438 C 90.207 84.438 90.374 84.405 90.467 84.338 C 90.567 84.265 90.617 84.148 90.617 83.988 C 90.617 83.821 90.57 83.705 90.477 83.638 C 90.384 83.571 90.214 83.538 89.967 83.538 C 89.727 83.538 89.557 83.571 89.457 83.638 C 89.364 83.705 89.317 83.821 89.317 83.988 C 89.317 84.148 89.364 84.265 89.457 84.338 Z M 90.327 85.588 L 89.497 85.478 C 89.324 85.605 89.237 85.761 89.237 85.948 C 89.237 86.115 89.287 86.225 89.387 86.278 C 89.487 86.331 89.69 86.358 89.997 86.358 C 90.29 86.358 90.487 86.331 90.587 86.278 C 90.694 86.218 90.747 86.108 90.747 85.948 C 90.747 85.828 90.72 85.745 90.667 85.698 C 90.614 85.658 90.5 85.621 90.327 85.588 ZM 93.497 83.268 L 93.957 83.268 L 92.977 85.848 C 92.77 86.415 92.417 86.711 91.917 86.738 L 91.877 86.458 C 92.07 86.398 92.22 86.315 92.327 86.208 C 92.434 86.108 92.52 85.975 92.587 85.808 L 92.627 85.708 L 92.537 85.708 C 92.457 85.708 92.404 85.671 92.377 85.598 L 91.497 83.268 L 91.957 83.268 L 92.597 85.088 C 92.644 85.221 92.674 85.318 92.687 85.378 L 92.757 85.378 C 92.784 85.318 92.82 85.221 92.867 85.088 L 93.497 83.268 Z" transform="matrix(1, 0, 0, 1, 0, 0)" style="white-space: pre;"/>
  <text x="78.73" y="84.629" style="white-space: pre; fill: rgb(51, 51, 51); font-size: 24px;"> </text>
  <text x="95.541" y="65.568" style="white-space: pre; fill: rgb(51, 51, 51); font-size: 24px;"> </text>
</svg>